<?xml version="1.0" encoding="UTF-8" standalone="no"?>
<!-- Created with Inkscape (http://www.inkscape.org/) -->
<svg xmlns:inkscape="http://www.inkscape.org/namespaces/inkscape" xmlns:rdf="http://www.w3.org/1999/02/22-rdf-syntax-ns#" xmlns="http://www.w3.org/2000/svg" xmlns:cc="http://web.resource.org/cc/" xmlns:dc="http://purl.org/dc/elements/1.1/" xmlns:sodipodi="http://sodipodi.sourceforge.net/DTD/sodipodi-0.dtd" xmlns:svg="http://www.w3.org/2000/svg" xmlns:ns1="http://sozi.baierouge.fr" xmlns:xlink="http://www.w3.org/1999/xlink" id="svg9250" sodipodi:docname="1.svg" inkscape:export-filename="/home/dan/Desktop/Pages DIZ/OpenClipart.Projects/Sciboz Number (1)/1.png" viewBox="0 0 116.89 425.24" sodipodi:version="0.32" inkscape:export-xdpi="90" version="1.0" inkscape:output_extension="org.inkscape.output.svg.inkscape" inkscape:export-ydpi="90" inkscape:version="0.45.1" sodipodi:docbase="/home/dan/Desktop/Pages DIZ/OpenClipart.Projects/Sciboz Number (1)">
    <sodipodi:namedview id="base" bordercolor="#666666" inkscape:pageshadow="2" guidetolerance="10" pagecolor="#ffffff" gridtolerance="10000" inkscape:showpageshadow="false" inkscape:zoom="0.35" objecttolerance="10" inkscape:window-height="572" borderopacity="1.0" inkscape:current-layer="layer1" inkscape:cx="375" inkscape:cy="520" inkscape:window-y="0" inkscape:window-x="25" inkscape:window-width="748" inkscape:pageopacity="0.0" inkscape:document-units="px"/>
    <g id="layer1" inkscape:label="Layer 1" inkscape:groupmode="layer" transform="translate(-316.55 -319.74)">
        <path id="path2172" style="fill-rule:evenodd;stroke:#000000;stroke-width:0.802;fill:#800000" d="m316.95 460.86l115.93-140.72-0.28 424.3-61.82 0.14 0.14-228.6-53.76 65.63"/>
        <path id="path3146" sodipodi:nodetypes="cssssscccsssscc" style="color:#000000;stroke:#000000;stroke-width:0.802;fill:#d40000" d="m336.13 524.25c-0.15 3.36-0.42 6.66-0.81 9.88-0.41 3.35-0.94 6.61-1.6 9.78-0.68 3.31-1.5 6.51-2.43 9.58-0.98 3.24-2.09 6.34-3.32 9.27-1.31 3.13-2.76 6.06-4.32 8.79-1.68 2.94-4.54 7.62-6.47 10.02 0.12-60.95-0.18-65.74-0.14-120.1 5 3.77 8.01 8.99 10.68 14.54 1.33 2.85 2.51 5.91 3.56 9.14 0.97 3.03 1.82 6.22 2.52 9.54 0.66 3.14 1.2 6.4 1.6 9.76 0.39 3.21 0.64 6.51 0.76 9.88 0.12 3.25 0.11 6.56-0.03 9.92"/>
        <path id="path3197" style="color:#000000;stroke:#000000;stroke-width:0.802;fill:#d40000" d="m368.66 467.68c-4.74 11.05-12.64 17.93-17.63 15.37-4.98-2.57-5.18-13.61-0.43-24.65s12.64-17.92 17.63-15.36c4.98 2.56 5.18 13.6 0.43 24.64z"/>
        <path id="path4168" style="color:#000000;stroke:#000000;stroke-width:0.802;fill:#d40000" d="m370.88 744.18c1.05-2.82 1.6-4.86 2.93-7.47 1.36-2.68 3.04-5.14 4.97-7.33 1.96-2.23 4.19-4.18 6.63-5.79s5.1-2.87 7.91-3.73c2.74-0.83 5.63-1.28 8.62-1.28 2.98 0 5.87 0.45 8.61 1.28 2.81 0.86 5.47 2.12 7.91 3.73s4.67 3.55 6.64 5.79c1.93 2.19 3.6 4.65 4.97 7.33 1.33 2.61 1.88 4.38 2.57 7.33"/>
        <path id="path4199" style="color:#000000;stroke:#000000;stroke-width:0.802;fill:#d40000" d="m406.16 527.58c0 1.13-0.06 2.25-0.19 3.35-0.13 1.12-0.32 2.23-0.58 3.31-0.26 1.1-0.58 2.17-0.96 3.22-0.38 1.06-0.83 2.1-1.33 3.1-0.51 1.02-1.07 2-1.69 2.94-0.62 0.95-1.3 1.87-2.02 2.74-0.73 0.88-1.51 1.72-2.33 2.51-0.82 0.8-1.69 1.55-2.6 2.25s-1.87 1.36-2.86 1.96c-0.98 0.6-2 1.15-3.06 1.64-1.05 0.49-2.13 0.92-3.24 1.29-1.1 0.37-2.22 0.69-3.37 0.94-1.13 0.25-2.29 0.44-3.46 0.56-1.15 0.13-2.32 0.19-3.51 0.19-1.57 0.02-2.48-0.01-4.04-0.09-0.01-3.58 0-37.28 0.06-41.51-3.45 3.98-19.24 23.43-22.47 27.35-1-1.35-0.88-1.26-1.68-2.77-0.5-1-0.95-2.04-1.34-3.1-0.38-1.05-0.7-2.12-0.96-3.22-0.25-1.08-0.45-2.19-0.58-3.31-0.12-1.1-0.19-2.22-0.19-3.35s0.07-2.25 0.19-3.35c0.13-1.12 0.33-2.22 0.58-3.3 0.26-1.1 0.58-2.18 0.96-3.23 0.39-1.06 0.84-2.1 1.34-3.1 0.5-1.01 1.07-1.99 1.69-2.94s1.29-1.87 2.02-2.74c0.72-0.88 1.5-1.72 2.32-2.51 0.83-0.8 1.7-1.55 2.61-2.25s1.86-1.35 2.85-1.96c0.99-0.59 2.01-1.14 3.06-1.63s2.13-0.92 3.24-1.3c1.1-0.37 2.23-0.68 3.38-0.94 1.13-0.24 2.28-0.43 3.46-0.56 1.15-0.12 2.32-0.19 3.5-0.19 1.19 0 2.36 0.07 3.51 0.19 1.17 0.13 2.33 0.32 3.46 0.56 1.15 0.26 2.27 0.57 3.37 0.94 1.11 0.37 2.19 0.81 3.24 1.3s2.08 1.04 3.06 1.63c0.99 0.61 1.94 1.26 2.85 1.96 0.92 0.7 1.79 1.45 2.61 2.25 0.82 0.79 1.6 1.63 2.33 2.51 0.72 0.87 1.4 1.79 2.02 2.74s1.18 1.93 1.69 2.94c0.5 1 0.94 2.04 1.33 3.1 0.38 1.05 0.7 2.13 0.96 3.23 0.26 1.08 0.45 2.18 0.58 3.3 0.13 1.1 0.19 2.22 0.19 3.35"/>
        <path id="path4262" sodipodi:nodetypes="cssssssssssccc" style="color:#000000;stroke:#000000;stroke-width:0.802;fill:#d40000" d="m432.71 504.18c-3.09 0-7.48-1.23-10.39-2.44-2.99-1.24-5.86-3.09-8.6-5.48-2.76-2.4-5.37-5.35-7.81-8.78-2.43-3.42-4.68-7.3-6.73-11.6-2.02-4.24-3.84-8.88-5.43-13.86-1.56-4.88-2.89-10.08-3.97-15.55-1.05-5.33-1.87-10.91-2.41-16.68-0.53-5.58-0.8-11.34-0.8-17.23s0.27-11.66 0.8-17.24c0.54-5.77 1.36-11.35 2.41-16.68 1.08-5.46 0.88-4.21 2.44-9.1 15.49-17.63 26.15-33.71 40.65-49.37 0.51 144.16-0.25 181.43-0.16 184.01z"/>
        <path id="path4264" sodipodi:nodetypes="csssssssccssssssscc" style="color:#000000;stroke:#000000;stroke-width:0.802;fill:#d40000" d="m432.76 672.38c-1.29 2.61-3.48 4.87-5.84 7.03-2.37 2.16-4.91 4.03-7.59 5.55-2.66 1.5-5.46 2.67-8.36 3.45-2.83 0.77-5.76 1.17-8.76 1.17s-5.93-0.4-8.77-1.17c-2.9-0.78-5.69-1.95-8.35-3.45-2.68-1.52-5.23-3.39-7.6-5.55-2.36-2.16-4.5-5.01-6.49-7.72-0.28-33.2-0.06-37.69-0.15-79.21 1.99-2.71 4.28-5.57 6.64-7.72 2.37-2.17 4.92-4.03 7.6-5.55 2.66-1.51 5.45-2.68 8.36-3.46 2.83-0.77 5.76-1.17 8.76-1.17s5.93 0.4 8.76 1.17c2.9 0.78 5.7 1.95 8.36 3.46 2.68 1.52 5.22 3.38 7.59 5.55 2.36 2.15 3.75 3.32 5.84 6.73v80.89z"/>
    </g>
    <metadata>
        <rdf:RDF>
            <cc:Work>
                <dc:format>image/svg+xml</dc:format>
                <dc:type rdf:resource="http://purl.org/dc/dcmitype/StillImage"/>
                <cc:license rdf:resource="http://creativecommons.org/licenses/publicdomain/"/>
                <dc:publisher>
                    <cc:Agent rdf:about="http://openclipart.org/">
                        <dc:title>Openclipart</dc:title>
                    </cc:Agent>
                </dc:publisher>
                <dc:title>Cibo00 - Number (1)</dc:title>
                <dc:date>2008-02-08T14:55:38</dc:date>
                <dc:description/>
                <dc:source>https://openclipart.org/detail/13164/cibo00---number-(1)-by-cibo00</dc:source>
                <dc:creator>
                    <cc:Agent>
                        <dc:title>cibo00</dc:title>
                    </cc:Agent>
                </dc:creator>
                <dc:subject>
                    <rdf:Bag>
                        <rdf:li>calligraphy</rdf:li>
                        <rdf:li>number</rdf:li>
                        <rdf:li>number 1</rdf:li>
                    </rdf:Bag>
                </dc:subject>
            </cc:Work>
            <cc:License rdf:about="http://creativecommons.org/licenses/publicdomain/">
                <cc:permits rdf:resource="http://creativecommons.org/ns#Reproduction"/>
                <cc:permits rdf:resource="http://creativecommons.org/ns#Distribution"/>
                <cc:permits rdf:resource="http://creativecommons.org/ns#DerivativeWorks"/>
            </cc:License>
        </rdf:RDF>
    </metadata>
</svg>