<?xml version="1.0" encoding="UTF-8" standalone="no"?>
<svg
   xmlns:dc="http://purl.org/dc/elements/1.1/"
   xmlns:cc="http://creativecommons.org/ns#"
   xmlns:rdf="http://www.w3.org/1999/02/22-rdf-syntax-ns#"
   xmlns:svg="http://www.w3.org/2000/svg"
   xmlns="http://www.w3.org/2000/svg"
   id="svg796"
   version="1.1"
   viewBox="0 0 180 180"
   height="180mm"
   width="180mm">
  <defs
     id="defs790" />
  <metadata
     id="metadata793">
    <rdf:RDF>
      <cc:Work
         rdf:about="">
        <dc:format>image/svg+xml</dc:format>
        <dc:type
           rdf:resource="http://purl.org/dc/dcmitype/StillImage" />
        <dc:title></dc:title>
      </cc:Work>
    </rdf:RDF>
  </metadata>
  <g
     transform="translate(0,-117)"
     id="layer1">
    <g
       transform="translate(-15.07738,75.553566)"
       id="g898">
      <rect
         style="fill:#000000;stroke-width:0.36206898"
         id="rect50"
         width="180"
         height="180"
         x="15.07738"
         y="41.446434" />
      <g
         aria-label="&lt;"
         transform="scale(0.96244752,1.0390177)"
         style="font-style:normal;font-weight:normal;font-size:61.44464111px;line-height:125%;font-family:Sans;letter-spacing:0px;word-spacing:0px;fill:#000000;fill-opacity:1;stroke:none;stroke-width:1.536116px;stroke-linecap:butt;stroke-linejoin:miter;stroke-opacity:1"
         id="text44">
        <path
           d="m 65.617218,95.748222 -17.776693,6.321748 17.776693,6.2873 v 3.13504 l -22.083063,-8.00985 v -2.85943 l 22.083063,-8.009845 z"
           style="font-size:35.27777863px;line-height:10px;fill:#ffffff;stroke-width:1.536116px"
           id="path862" />
      </g>
      <path
         id="path865"
         style="font-style:normal;font-weight:normal;font-size:44.29040909px;line-height:12.55476093px;font-family:Sans;letter-spacing:0px;word-spacing:0px;fill:#ffffff;fill-opacity:1;stroke:none;stroke-width:1.92855692px;stroke-linecap:butt;stroke-linejoin:miter;stroke-opacity:1"
         d="m 97.986137,145.40627 q -3.080481,0 -4.87049,2.60652 -1.790009,2.58405 -1.790009,7.10051 0,4.51646 1.769196,7.12299 1.790009,2.58404 4.891303,2.58404 3.059673,0 4.849673,-2.60652 1.79001,-2.60652 1.79001,-7.10051 0,-4.47153 -1.79001,-7.07805 -1.79,-2.62898 -4.849673,-2.62898 z m 0,-3.50532 q 4.995373,0 7.846903,3.50532 2.85152,3.50531 2.85152,9.70703 0,6.17925 -2.85152,9.70703 -2.85153,3.50532 -7.846903,3.50532 -5.016188,0 -7.867714,-3.50532 -2.830712,-3.52778 -2.830712,-9.70703 0,-6.20172 2.830712,-9.70703 2.851526,-3.50532 7.867714,-3.50532 z" />
      <path
         id="path867"
         style="font-style:normal;font-weight:normal;font-size:44.29040909px;line-height:12.55476093px;font-family:Sans;letter-spacing:0px;word-spacing:0px;fill:#ffffff;fill-opacity:1;stroke:none;stroke-width:1.92855692px;stroke-linecap:butt;stroke-linejoin:miter;stroke-opacity:1"
         d="m 129.87327,143.24915 v 3.90977 q -1.62349,-0.89879 -3.37187,-1.34819 -1.74838,-0.4494 -3.62164,-0.4494 -2.85153,0 -4.2877,0.94374 -1.41535,0.94374 -1.41535,2.83122 0,1.43807 1.01988,2.26946 1.01989,0.80892 4.10037,1.55044 l 1.31128,0.31457 q 4.07956,0.94374 5.78631,2.67393 1.72757,1.70772 1.72757,4.7861 0,3.50532 -2.58094,5.55009 -2.56013,2.04477 -7.05597,2.04477 -1.87326,0 -3.91304,-0.40446 -2.01897,-0.382 -4.26688,-1.16844 v -4.2693 q 2.12303,1.19091 4.18362,1.7976 2.06059,0.58422 4.07956,0.58422 2.70582,0 4.16281,-0.98868 1.45699,-1.01115 1.45699,-2.83122 0,-1.68524 -1.06152,-2.58404 -1.04071,-0.89881 -4.59991,-1.7302 l -1.3321,-0.33704 q -3.5592,-0.80892 -5.14107,-2.4717 -1.58187,-1.68525 -1.58187,-4.60634 0,-3.55026 2.33118,-5.48268 2.33117,-1.93242 6.61886,-1.93242 2.12304,0 3.99631,0.33705 1.87326,0.33705 3.45512,1.01115 z" />
      <path
         id="path869"
         style="font-style:normal;font-weight:normal;font-size:44.29040909px;line-height:12.55476093px;font-family:Sans;letter-spacing:0px;word-spacing:0px;fill:#ffffff;fill-opacity:1;stroke:none;stroke-width:1.92855692px;stroke-linecap:butt;stroke-linejoin:miter;stroke-opacity:1"
         d="m 154.01759,143.47385 v 3.86483 q -1.6235,-0.9662 -3.26781,-1.43807 -1.62349,-0.49434 -3.28862,-0.49434 -3.72572,0 -5.78632,2.56157 -2.06059,2.53911 -2.06059,7.14546 0,4.60634 2.06059,7.16792 2.0606,2.53911 5.78632,2.53911 1.66513,0 3.28862,-0.47187 1.64431,-0.49434 3.26781,-1.46054 v 3.81989 q -1.60269,0.80892 -3.33025,1.21338 -1.70676,0.40446 -3.64246,0.40446 -5.26596,0 -8.36725,-3.57273 -3.1013,-3.57272 -3.1013,-9.63962 0,-6.15677 3.12211,-9.68456 3.14292,-3.52779 8.5962,-3.52779 1.7692,0 3.45514,0.40446 1.68594,0.38199 3.26781,1.16844 z" />
      <path
         id="path875"
         style="font-style:normal;font-weight:normal;font-size:35.27777863px;line-height:10px;font-family:Sans;letter-spacing:0px;word-spacing:0px;fill:#ffffff;fill-opacity:1;stroke:none;stroke-width:1.536116px;stroke-linecap:butt;stroke-linejoin:miter;stroke-opacity:1"
         d="m 162.72909,149.29012 v -3.25737 l 21.25378,8.32238 v 2.971 l -21.25378,8.32237 v -3.25736 l 17.07597,-6.53261 z" />
      <path
         id="path849"
         style="font-style:normal;font-weight:normal;font-size:41.34793472px;line-height:11.72067356px;font-family:Sans;letter-spacing:0px;word-spacing:0px;fill:#ff0000;fill-opacity:1;stroke:none;stroke-width:1.80043149px;stroke-linecap:butt;stroke-linejoin:miter;stroke-opacity:1"
         d="m 77.036748,114.63952 v 13.04724 H 73.60364 V 93.728798 h 3.433108 v 3.734057 q 1.076325,-2.196504 2.709371,-3.250826 1.651604,-1.076288 3.934156,-1.076288 3.785698,0 6.142479,3.558337 2.375339,3.558342 2.375339,9.357112 0,5.79876 -2.375339,9.3571 -2.356781,3.55835 -6.142479,3.55835 -2.282552,0 -3.934156,-1.05434 -1.633046,-1.07628 -2.709371,-3.27278 z m 11.616894,-8.58833 q 0,-4.45891 -1.558817,-6.984887 -1.540259,-2.547945 -4.24963,-2.547945 -2.709372,0 -4.268188,2.547945 -1.540259,2.525977 -1.540259,6.984887 0,4.4589 1.540259,7.00684 1.558816,2.52599 4.268188,2.52599 2.709371,0 4.24963,-2.52599 1.558817,-2.54794 1.558817,-7.00684 z" />
      <path
         id="path851"
         style="font-style:normal;font-weight:normal;font-size:41.34793472px;line-height:11.72067356px;font-family:Sans;letter-spacing:0px;word-spacing:0px;fill:#ff0000;fill-opacity:1;stroke:none;stroke-width:1.80043149px;stroke-linecap:butt;stroke-linejoin:miter;stroke-opacity:1"
         d="M 97.505496,108.6211 V 93.728798 h 3.414544 v 14.738542 q 0,3.49244 1.15055,5.24964 1.15057,1.73525 3.45168,1.73525 2.76504,0 4.36097,-2.08669 1.61449,-2.08667 1.61449,-5.68894 V 93.728798 h 3.41454 v 24.600842 h -3.41454 v -3.77799 q -1.24334,2.24044 -2.89495,3.33869 -1.63305,1.0763 -3.80425,1.0763 -3.58157,0 -5.437302,-2.63581 -1.855732,-2.6358 -1.855732,-7.70973 z m 8.592044,-15.485359 z" />
      <path
         id="path853"
         style="font-style:normal;font-weight:normal;font-size:41.34793472px;line-height:11.72067356px;font-family:Sans;letter-spacing:0px;word-spacing:0px;fill:#ff0000;fill-opacity:1;stroke:none;stroke-width:1.80043149px;stroke-linecap:butt;stroke-linejoin:miter;stroke-opacity:1"
         d="m 134.02634,97.506785 q -0.57528,-0.395371 -1.2619,-0.571091 -0.66807,-0.197686 -1.48459,-0.197686 -2.89495,0 -4.45376,2.240435 -1.54026,2.218467 -1.54026,6.391827 v 12.95937 h -3.43311 V 93.728798 h 3.43311 v 3.821917 q 1.07633,-2.240434 2.80215,-3.316722 1.72584,-1.098252 4.19396,-1.098252 0.35259,0 0.77942,0.0659 0.42681,0.04393 0.94642,0.153756 z" />
      <path
         id="path855"
         style="font-style:normal;font-weight:normal;font-size:41.34793472px;line-height:11.72067356px;font-family:Sans;letter-spacing:0px;word-spacing:0px;fill:#ff0000;fill-opacity:1;stroke:none;stroke-width:1.80043149px;stroke-linecap:butt;stroke-linejoin:miter;stroke-opacity:1"
         d="m 154.60643,105.01883 v 1.97685 h -15.69951 q 0.22269,4.17336 2.11553,6.36986 1.91141,2.17455 5.30741,2.17455 1.96707,0 3.80425,-0.5711 1.85573,-0.57108 3.67435,-1.71327 v 3.82192 q -1.83718,0.92253 -3.76714,1.40576 -1.92996,0.48324 -3.9156,0.48324 -4.97336,0 -7.88687,-3.42655 -2.89494,-3.42655 -2.89494,-9.26925 0,-6.04039 2.74648,-9.576762 2.76505,-3.558337 7.4415,-3.558337 4.19396,0 6.62496,3.206897 2.44958,3.184931 2.44958,8.676192 z m -3.41456,-1.18611 q -0.0371,-3.31672 -1.57737,-5.293578 -1.5217,-1.976854 -4.0455,-1.976854 -2.85783,0 -4.58366,1.910959 -1.70727,1.910963 -1.96708,5.381433 z" />
      <g
         id="g291"
         transform="matrix(0.76193075,0,0,0.59374016,-198.96038,564.83523)"
         style="fill:#ffffff">
        <g
           id="g284"
           style="fill:#ffffff">
          <g
             style="fill:#ffffff"
             id="g185"
             transform="matrix(3.3876559,0,0,3.3876559,302.17706,-723.50409)">
            <path
               style="fill:#ffffff"
               d="M 19.006,2.97 C 18.815,2.751 18.54,2.625 18.25,2.625 H 4.431 L 4.236,1.461 C 4.156,0.979 3.739,0.625 3.25,0.625 H 1 c -0.553,0 -1,0.447 -1,1 0,0.553 0.447,1 1,1 h 1.403 l 1.86,11.164 c 0.008,0.045 0.031,0.082 0.045,0.124 0.016,0.053 0.029,0.103 0.054,0.151 0.032,0.066 0.075,0.122 0.12,0.179 0.031,0.039 0.059,0.078 0.095,0.112 0.058,0.054 0.125,0.092 0.193,0.13 0.038,0.021 0.071,0.049 0.112,0.065 0.116,0.047 0.238,0.075 0.367,0.075 0.001,0 11.001,0 11.001,0 0.553,0 1,-0.447 1,-1 0,-0.553 -0.447,-1 -1,-1 H 6.097 l -0.166,-1 H 17.25 c 0.498,0 0.92,-0.366 0.99,-0.858 l 1,-7 C 19.281,3.479 19.195,3.188 19.006,2.97 Z m -1.909,1.655 -0.285,2 H 13.25 v -2 z m -4.847,0 v 2 h -3 v -2 z m 0,3 v 2 h -3 v -2 z m -4,-3 v 2 h -3 c -0.053,0 -0.101,0.015 -0.148,0.03 L 4.764,4.625 Z m -2.986,3 H 8.25 v 2 H 5.597 Z m 7.986,2 v -2 h 3.418 l -0.285,2 z"
               id="path179" />
            <path
               style="fill:#ffffff"
               d="m 8.25,17.125 a 1.5,1.5 0 0 1 -1.5,1.5 1.5,1.5 0 0 1 -1.5,-1.5 1.5,1.5 0 0 1 1.5,-1.5 1.5,1.5 0 0 1 1.5,1.5 z"
               id="circle181" />
            <path
               style="fill:#ffffff"
               d="m 17.25,17.125 a 1.5,1.5 0 0 1 -1.5,1.5 1.5,1.5 0 0 1 -1.5,-1.5 1.5,1.5 0 0 1 1.5,-1.5 1.5,1.5 0 0 1 1.5,1.5 z"
               id="circle183" />
          </g>
        </g>
      </g>
    </g>
  </g>
</svg>
